<svg width="80" height="40" viewBox="0 0 80 40" fill="none" xmlns="http://www.w3.org/2000/svg">
<path d="M24.9317 24.1428C25.0708 25.7361 25.1403 26.5925 25.1403 26.712C25.0708 27.1103 24.2479 27.3095 22.6715 27.3095C22.2774 27.3095 22.0456 27.0804 21.9761 26.6224L22.1499 24.1428V20.319C20.0404 22.9479 17.3862 25.0092 14.1871 26.5029C13.9553 26.5825 13.7699 26.6224 13.6308 26.6224C13.4917 26.6224 13.4221 26.483 13.4221 26.2041C13.4221 25.9253 13.538 25.6963 13.7699 25.517C17.618 22.5894 20.1563 19.6717 21.3849 16.764H18.1511C17.4789 16.8038 17.0268 16.8935 16.795 17.0329C16.5864 17.1524 16.4589 17.2121 16.4125 17.2121L15.2998 15.569C16.7371 15.7483 17.8961 15.8479 18.777 15.8678H22.1499V12.9103C22.034 12.0141 21.9761 11.5361 21.9761 11.4763C21.9761 11.4166 22.0688 11.3867 22.2542 11.3867C22.4629 11.3867 23.1351 11.4564 24.271 11.5958C25.4069 11.7352 25.9749 11.8846 25.9749 12.0439L24.9317 12.9999V15.8678L28.5828 15.8977L30.2171 14.1052C31.7007 15.2803 32.6047 16.047 32.9293 16.4055C32.9293 16.6445 32.6743 16.764 32.1643 16.764H24.9317C27.1571 19.851 29.8809 21.9023 33.1031 22.918L31.295 26.0548C28.8841 24.1428 26.763 21.8426 24.9317 19.1539V24.1428ZM10.6404 24.1428C10.7795 25.7361 10.849 26.5925 10.849 26.712C10.7795 27.1103 9.95652 27.3095 8.38019 27.3095C7.9861 27.3095 7.75429 27.0804 7.68474 26.6224L7.8586 24.1428V20.4385C6.39818 22.8085 4.17276 24.5909 1.18236 25.7859C0.950549 25.8656 0.765098 25.9054 0.626009 25.9054C0.486921 25.9054 0.417377 25.7959 0.417377 25.5768C0.417377 25.3577 0.533284 25.1486 0.765098 24.9494C4.52048 21.743 6.66476 19.0145 7.19793 16.764H3.40778C2.73552 16.8038 2.28348 16.8935 2.05167 17.0329C1.84303 17.1524 1.71553 17.2121 1.66917 17.2121L0.556465 15.569C1.99371 15.7483 3.15278 15.8479 4.03367 15.8678H7.8586V12.9103C7.7427 12.0141 7.68474 11.5361 7.68474 11.4763C7.68474 11.4166 7.77747 11.3867 7.96292 11.3867C8.17155 11.3867 8.84381 11.4564 9.9797 11.5958C11.1156 11.7352 11.6835 11.8846 11.6835 12.0439L10.6404 12.9999V15.8678L11.2663 15.8977L12.9006 14.1052C14.4073 15.2006 15.3114 15.9674 15.6128 16.4055C15.6128 16.6445 15.3578 16.764 14.8478 16.764H10.6404V17.5706C12.1472 18.0087 13.3178 18.5863 14.1524 19.3033C15.0101 20.0003 15.4389 20.6078 15.4389 21.1256C15.4389 22.4799 14.9869 23.157 14.0828 23.157C13.9437 23.157 13.6192 22.689 13.1092 21.7529C12.6224 20.797 11.7994 19.841 10.6404 18.885V24.1428ZM17.6643 9.6839C17.7802 10.9984 17.8382 11.8249 17.8382 12.1634C17.8382 12.6812 17.0037 12.9402 15.3346 12.9402C14.9405 12.9402 14.7087 12.7012 14.6392 12.2232L14.813 9.6839V7.26412C10.9649 9.79344 6.54886 11.6157 1.56486 12.731C1.07805 12.8306 0.834642 12.7908 0.834642 12.6115C0.834642 12.1933 1.10123 11.9045 1.6344 11.7452C6.43295 10.4507 10.3622 8.30971 13.4221 5.32232H6.32863C5.63319 5.34224 5.07684 5.4219 4.65957 5.56131C4.26549 5.70073 4.02208 5.77043 3.92936 5.77043L2.2603 4.36636C2.19075 4.30661 2.15598 4.22695 2.15598 4.12737C2.15598 4.02779 2.24871 3.99792 2.43416 4.03775C3.77868 4.23691 5.40138 4.34644 7.30225 4.36636H14.813V2.63368L14.6392 1.13999C14.6855 1.08024 14.7435 1.05036 14.813 1.05036H14.9869C17.2123 1.16986 18.4525 1.39889 18.7075 1.73746L17.6296 2.7233V4.36636H25.1403L27.1919 2.30507C29.3941 3.978 30.4952 4.90409 30.4952 5.08333C30.4952 5.24266 30.2286 5.32232 29.6955 5.32232L17.9773 5.3522C20.7822 7.54294 25.5228 9.02668 32.1991 9.8034L29.7998 12.5518C23.819 10.4805 19.7738 8.50887 17.6643 6.63677V9.6839Z" fill="white"/>
<path d="M42.1199 14.1799C42.1199 15.0501 41.363 15.7555 40.4293 15.7555C39.4955 15.7555 38.7386 15.0501 38.7386 14.1799C38.7386 13.3098 39.4955 12.6044 40.4293 12.6044C41.363 12.6044 42.1199 13.3098 42.1199 14.1799Z" fill="white"/>
<path d="M61.7453 15.2106H65.7145C65.9314 13.3158 66.0616 11.4106 66.105 9.49492H62.9491C62.5587 11.473 62.1574 13.3783 61.7453 15.2106ZM71.8311 15.2106L71.9937 10.1821C71.9937 9.95301 71.9287 9.72396 71.7985 9.49492H68.5776C68.5342 11.4106 68.4041 13.3158 68.1872 15.2106H71.8311ZM71.3756 21.6447C71.6142 19.2918 71.7551 17.3969 71.7985 15.9602H68.0896C67.851 17.8759 67.5148 19.7707 67.081 21.6447H71.3756ZM60.1836 21.6447H64.6084C65.0422 19.7707 65.3783 17.8759 65.6169 15.9602H61.5826C61.1271 17.9591 60.6608 19.854 60.1836 21.6447ZM74.3362 15.9602C74.2929 17.4802 74.1844 19.3751 74.0109 21.6447H74.5965L76.1907 19.677C77.8391 21.0512 78.6634 21.8529 78.6634 22.0819C78.6634 22.2902 78.4031 22.3943 77.8825 22.3943H73.9784C73.8048 24.3516 73.6096 25.6217 73.3927 26.2047C73.3277 26.7253 73.0457 27.2146 72.5468 27.6727C72.0697 28.1308 71.5274 28.3598 70.9201 28.3598C70.7032 28.3598 70.2911 28.0267 69.6838 27.3604C68.7945 26.3817 67.1027 25.8508 64.6084 25.7675C64.3047 25.705 64.1529 25.6321 64.1529 25.5488C64.1529 25.2365 64.283 25.0803 64.5433 25.0803L70.2694 25.5801C70.6381 25.5801 70.855 25.4135 70.9201 25.0803C71.0502 24.3516 71.1804 23.4562 71.3105 22.3943H59.9559C59.8474 22.8107 59.739 23.2167 59.6305 23.6124L59.4353 24.5494C59.3052 25.1949 58.5461 25.5176 57.1579 25.5176C57.0278 25.5176 56.8543 25.2573 56.6374 24.7368L57.3531 22.8003C57.9821 20.6348 58.5677 18.3548 59.11 15.9602H58.3942L56.4421 16.1788L55.4661 15.1169C55.401 15.0544 55.3685 15.0024 55.3685 14.9607C55.3685 14.8983 55.4227 14.867 55.5312 14.867C55.6613 14.867 55.8565 14.9191 56.1168 15.0232C56.3988 15.1273 57.364 15.1898 59.0124 15.2106H59.2727C59.7065 13.17 60.0969 11.0566 60.4439 8.87026L60.2812 7.46476C60.2596 7.319 60.2921 7.27736 60.3788 7.33982C60.4656 7.40229 61.5284 7.86038 63.5672 8.71409H71.0502L73.0674 7.05872C73.4578 7.05872 74.0109 7.33982 74.7267 7.90202C75.4641 8.46422 75.8328 8.92231 75.8328 9.27629C75.8328 9.3804 75.6051 9.58862 75.1496 9.90096C74.6941 10.2133 74.4664 10.4736 74.4664 10.6818C74.423 12.2018 74.3905 13.7114 74.3688 15.2106H75.0845L76.8414 13.0868C78.4898 14.7317 79.3141 15.575 79.3141 15.6166C79.3141 15.8457 79.0538 15.9602 78.5332 15.9602H74.3362ZM58.0038 10.8692C57.8086 10.9317 57.6459 10.9629 57.5158 10.9629C57.2555 10.9629 57.1254 10.8692 57.1254 10.6818C57.1254 10.4736 57.2013 10.2133 57.3531 9.90096C58.8714 6.52776 59.9234 3.22744 60.509 0C62.678 0.416443 63.9577 0.895354 64.3481 1.43673L62.6563 2.03016C62.3743 2.73812 62.0815 3.42525 61.7778 4.09156H74.2712L75.8654 2.1551C77.5138 3.50854 78.338 4.29978 78.338 4.52883C78.338 4.73705 78.0777 4.84116 77.5572 4.84116H61.42C60.3572 7.06914 59.2184 9.07848 58.0038 10.8692ZM52.8633 12.0561C52.8633 13.0972 52.4946 13.6177 51.7571 13.6177C51.2583 13.6177 50.8679 13.2533 50.5859 12.5246C49.9135 10.7338 49.0242 9.30752 47.9181 8.24559C47.8096 8.14148 47.7554 7.9749 47.7554 7.74586C47.7554 7.51681 47.8747 7.40229 48.1133 7.40229C48.3735 7.40229 48.97 7.6938 49.9027 8.27682C51.8764 9.35958 52.8633 10.4944 52.8633 11.6813C52.8633 11.8062 52.8633 11.9311 52.8633 12.0561ZM53.0585 23.2688L53.7092 25.8924C53.7092 27.4124 53.1019 28.1724 51.8873 28.1724H51.627C51.0197 28.1724 50.716 27.8497 50.716 27.2042C50.716 27.0793 50.7811 26.5483 50.9112 25.6113C51.0631 24.6743 51.139 23.6852 51.139 22.6441C50.5967 21.728 49.9027 20.968 49.0568 20.3641C48.8833 20.031 48.7206 19.7082 48.5687 19.3959C49.2845 19.6041 49.7834 19.7082 50.0653 19.7082C50.6727 19.7082 51.139 19.4792 51.4643 19.0211C53.7851 13.9196 55.5312 9.67191 56.7024 6.27789C56.7892 6.02803 56.9085 5.85104 57.0603 5.74693C57.2338 5.62199 57.364 5.55953 57.4507 5.55953C57.5592 5.55953 57.6785 5.61158 57.8086 5.71569C57.9387 5.79898 58.0038 5.94474 58.0038 6.15296C54.707 15.0649 53.0585 20.6556 53.0585 22.9252V23.2688ZM55.0757 5.21596C55.0757 6.25707 54.6961 6.77763 53.937 6.77763C53.4598 6.77763 53.0802 6.41324 52.7983 5.68446C52.0174 4.08115 51.1281 2.65483 50.1304 1.4055C50.022 1.30139 49.9677 1.13481 49.9677 0.905765C49.9677 0.676721 50.087 0.562199 50.3256 0.562199C50.5859 0.562199 51.1824 0.85371 52.115 1.43673C54.0888 2.51949 55.0757 3.77923 55.0757 5.21596Z" fill="white"/>
<path d="M3.37688 39.9467C3.30644 39.9248 3.16115 39.9138 2.94101 39.9138H0.506312C0.353685 39.9138 0.230409 39.892 0.136484 39.8482C0.0454947 39.8017 0 39.7183 0 39.5979C0 39.5131 0.0234812 39.4434 0.0704435 39.3887C0.176109 39.416 0.280306 39.4297 0.383036 39.4297C0.488701 39.4297 0.575288 39.4201 0.642797 39.401C0.710305 39.3791 0.770475 39.3422 0.823308 39.2902C0.943649 39.1726 1.00382 38.9907 1.00382 38.7445V34.6497C1.00382 34.4117 0.901089 34.2599 0.695629 34.1943C0.636926 34.1751 0.575288 34.1587 0.510715 34.145C0.449077 34.1286 0.388907 34.1136 0.330204 34.0999C0.274436 34.0835 0.224539 34.0657 0.180511 34.0466C0.0807165 33.9973 0.030819 33.9303 0.030819 33.8455C0.030819 33.7334 0.0543002 33.6527 0.101262 33.6034C0.15116 33.6171 0.202525 33.624 0.255358 33.624H4.71091C4.97507 33.624 5.13797 33.6472 5.19961 33.6937C5.30821 33.7703 5.36251 33.9508 5.36251 34.2353C5.36251 34.5088 5.33903 34.7277 5.29206 34.8918C5.2451 35.0532 5.20988 35.1516 5.1864 35.1872C5.14824 35.2474 5.09247 35.2775 5.0191 35.2775C4.89876 35.2775 4.81217 35.2583 4.75934 35.22C4.70944 35.1817 4.68449 35.1544 4.68449 35.138C4.65514 34.7495 4.57882 34.4883 4.45555 34.3543C4.32347 34.2066 4.05784 34.1327 3.65866 34.1327H2.81334C2.49928 34.1327 2.30262 34.1587 2.22337 34.2107C2.14706 34.2599 2.09863 34.3187 2.07808 34.3871C2.05754 34.4528 2.0458 34.5376 2.04286 34.6415V36.533H2.24979C2.95716 36.533 3.57647 36.481 4.10773 36.3771C4.2134 36.4181 4.26623 36.5658 4.26623 36.8202C4.26623 36.9515 4.23982 37.0746 4.18698 37.1895C3.9962 37.2059 3.79074 37.2141 3.5706 37.2141C3.35047 37.2141 3.11272 37.2018 2.85736 37.1771L2.04286 37.0951V38.9455C2.04286 39.1808 2.24098 39.3203 2.63723 39.364C2.96596 39.4023 3.16996 39.4406 3.2492 39.4789C3.33139 39.5145 3.38422 39.55 3.4077 39.5856C3.43118 39.6184 3.44292 39.6595 3.44292 39.7087C3.44292 39.8099 3.42091 39.8892 3.37688 39.9467Z" fill="white"/>
<path d="M7.63695 37.649C7.63695 37.3153 7.67217 37.0158 7.74262 36.7504C7.81306 36.4851 7.90992 36.2512 8.0332 36.0488C8.15647 35.8464 8.30176 35.6741 8.46906 35.5318C8.63637 35.3869 8.81541 35.2693 9.0062 35.179C9.37896 35.0012 9.78841 34.9123 10.2346 34.9123C10.8069 34.9123 11.2927 35.1065 11.6919 35.4949C12.1351 35.9216 12.3567 36.4851 12.3567 37.1854C12.3567 38.1044 12.0881 38.8197 11.551 39.3312C11.0843 39.7716 10.5251 39.9918 9.87353 39.9918C9.19258 39.9918 8.64664 39.7689 8.23572 39.323C7.83654 38.8936 7.63695 38.3356 7.63695 37.649ZM10.1333 39.323C10.3299 39.323 10.5061 39.2806 10.6616 39.1958C10.8172 39.1083 10.9493 38.9893 11.0579 38.8389C11.2751 38.527 11.3837 38.1222 11.3837 37.6244C11.3837 37.0773 11.2692 36.6123 11.0403 36.2294C10.782 35.789 10.4107 35.5688 9.92636 35.5688C9.53599 35.5688 9.2234 35.7083 8.98859 35.9873C8.7391 36.2827 8.61435 36.6957 8.61435 37.2264C8.61435 37.8911 8.77139 38.4162 9.08545 38.8019C9.36722 39.1493 9.7165 39.323 10.1333 39.323Z" fill="white"/>
<path d="M17.5061 39.9344C17.4444 39.9207 17.3505 39.9138 17.2243 39.9138H15.7318C15.45 39.9138 15.2695 39.8673 15.1903 39.7743C15.158 39.7388 15.1418 39.6977 15.1418 39.6512C15.1418 39.5364 15.1653 39.4516 15.2123 39.3969C15.2827 39.4187 15.3473 39.4297 15.406 39.4297C15.4676 39.4297 15.519 39.4228 15.5601 39.4092C15.6012 39.3928 15.6335 39.3668 15.6569 39.3312C15.698 39.2656 15.7186 39.137 15.7186 38.9455V36.2622C15.7186 36.0051 15.6672 35.845 15.5645 35.7821C15.5234 35.7575 15.4691 35.7452 15.4016 35.7452C15.3341 35.7452 15.2798 35.7548 15.2387 35.7739C15.2005 35.7931 15.1682 35.8067 15.1418 35.815C15.1183 35.8232 15.0978 35.8232 15.0802 35.815C15.0626 35.804 15.045 35.789 15.0274 35.7698C14.9833 35.7206 14.9613 35.6741 14.9613 35.6303C14.9613 35.5838 14.9789 35.5346 15.0141 35.4826C15.0523 35.4279 15.1125 35.3664 15.1947 35.298C15.2768 35.2269 15.3708 35.1626 15.4764 35.1051C15.7142 34.9766 15.9519 34.9123 16.1897 34.9123C16.4597 34.9123 16.6197 35.0764 16.6696 35.4047C16.6842 35.5004 16.693 35.6002 16.696 35.7042C17.1245 35.3513 17.5662 35.1092 18.0212 34.9779C18.1738 34.9342 18.3118 34.9123 18.4351 34.9123C18.5613 34.9123 18.664 34.9287 18.7432 34.9615C18.8254 34.9944 18.89 35.0395 18.937 35.0969C19.025 35.2091 19.069 35.3527 19.069 35.5277C19.069 35.7028 19.0602 35.8423 19.0426 35.9463C19.025 36.0502 19.003 36.1418 18.9766 36.2211C18.9238 36.3825 18.8739 36.4851 18.8269 36.5289C18.7447 36.6082 18.6346 36.6479 18.4967 36.6479C18.3558 36.6479 18.2854 36.6096 18.2854 36.533C18.2854 36.2403 18.2722 36.0529 18.2457 35.9709C18.1958 35.8204 18.1019 35.7452 17.964 35.7452C17.826 35.7452 17.7013 35.7603 17.5897 35.7903C17.4782 35.8177 17.3696 35.856 17.2639 35.9052C17.0497 36.0037 16.8618 36.1309 16.7004 36.2868V39.0153C16.7092 39.2314 16.8105 39.3627 17.0042 39.4092C17.0599 39.4228 17.123 39.4352 17.1935 39.4461C17.2639 39.457 17.3241 39.4707 17.374 39.4871C17.4268 39.5008 17.4679 39.5172 17.4973 39.5364C17.5472 39.5719 17.5721 39.6294 17.5721 39.7087C17.5721 39.8072 17.5501 39.8824 17.5061 39.9344Z" fill="white"/>
<path d="M21.5064 37.7064C21.5064 37.3755 21.5431 37.0814 21.6165 36.8243C21.6898 36.5672 21.7882 36.3374 21.9114 36.135C22.0376 35.9298 22.1844 35.7507 22.3517 35.5975C22.5219 35.4443 22.7039 35.3171 22.8976 35.2159C23.2792 35.0135 23.6549 34.9123 24.0247 34.9123C24.3946 34.9123 24.691 34.9738 24.9141 35.0969C25.1372 35.2173 25.3191 35.3787 25.46 35.5811C25.7213 35.9668 25.8519 36.4796 25.8519 37.1197C25.8519 37.3577 25.7447 37.4794 25.5305 37.4849L22.4574 37.5464C22.475 38.14 22.6394 38.579 22.9505 38.8635C23.2146 39.1042 23.5566 39.2245 23.9763 39.2245C24.6015 39.2245 25.1093 39.1028 25.4997 38.8594C25.5261 38.8594 25.5584 38.8799 25.5965 38.9209C25.6699 39.003 25.7066 39.0741 25.7066 39.1343C25.7066 39.2656 25.5305 39.4338 25.1783 39.6389C24.7732 39.8742 24.3006 39.9918 23.7606 39.9918C23.0561 39.9918 22.5029 39.7825 22.1008 39.364C21.7045 38.9537 21.5064 38.4012 21.5064 37.7064ZM22.4838 37.0171C23.3291 36.9788 24.1025 36.9282 24.804 36.8653C24.8363 35.9955 24.5134 35.5606 23.8354 35.5606C23.4568 35.5606 23.1471 35.6973 22.9065 35.9709C22.6863 36.2225 22.5454 36.5713 22.4838 37.0171Z" fill="white"/>
<path d="M31.6573 36.3689C31.6573 35.9476 31.4694 35.6686 31.0937 35.5318C30.9734 35.4881 30.8428 35.4662 30.7019 35.4662C30.5639 35.4662 30.4348 35.4771 30.3145 35.499C30.1971 35.5209 30.0929 35.5551 30.0019 35.6016C29.7964 35.7055 29.6937 35.8546 29.6937 36.0488C29.6937 36.2348 29.7788 36.3962 29.949 36.533C30.1369 36.6779 30.4862 36.8571 30.9969 37.0705C31.5076 37.2811 31.9009 37.5122 32.1768 37.7639C32.4557 38.0128 32.5951 38.3 32.5951 38.6255C32.5951 38.992 32.4336 39.3011 32.1108 39.5528C31.7321 39.8455 31.2082 39.9918 30.539 39.9918C29.7201 39.9918 29.1536 39.829 28.8396 39.5035C28.731 39.3887 28.6767 39.2423 28.6767 39.0645C28.6767 38.6351 28.7897 38.3848 29.0157 38.3137C29.0714 38.2973 29.1243 38.2891 29.1742 38.2891C29.3121 38.2891 29.387 38.3287 29.3987 38.408C29.4633 39.0919 29.8742 39.4338 30.6315 39.4338C31.0864 39.4338 31.3902 39.3148 31.5428 39.0768C31.5927 39.0002 31.6177 38.9072 31.6177 38.7978C31.6177 38.6884 31.5795 38.5886 31.5032 38.4983C31.4298 38.408 31.3271 38.3246 31.195 38.248C31.0629 38.1687 30.9059 38.0921 30.7239 38.0183L30.1384 37.7721C29.2402 37.3891 28.7911 36.8804 28.7911 36.2458C28.7911 35.8355 28.9863 35.5072 29.3767 35.2611C29.7465 35.0285 30.2235 34.9123 30.8076 34.9123C31.6001 34.9123 32.0932 35.0723 32.2869 35.3923C32.3368 35.4744 32.3617 35.5647 32.3617 35.6631C32.3617 35.7616 32.3559 35.8505 32.3441 35.9298C32.3324 36.0064 32.3177 36.0762 32.3001 36.1391C32.2707 36.2594 32.237 36.3442 32.1988 36.3935C32.1225 36.4454 32.0124 36.4714 31.8686 36.4714C31.7277 36.4714 31.6573 36.4372 31.6573 36.3689Z" fill="white"/>
<path d="M36.8551 38.1947C36.8551 38.646 36.8801 38.9182 36.93 39.0112C36.9799 39.1014 37.0386 39.1562 37.1061 39.1753C37.1736 39.1917 37.2602 39.1999 37.3659 39.1999C37.4715 39.1999 37.5669 39.1931 37.652 39.1794C37.7401 39.163 37.8223 39.1425 37.8986 39.1179C37.9749 39.0932 38.0483 39.0659 38.1187 39.0358L38.3344 38.9496C38.3843 38.9332 38.4401 38.9811 38.5018 39.0932C38.5194 39.1233 38.5282 39.1589 38.5282 39.1999C38.5282 39.2382 38.5106 39.2888 38.4753 39.3517C38.4401 39.4146 38.3711 39.4871 38.2684 39.5692C38.1686 39.6485 38.0512 39.7196 37.9162 39.7825C37.6227 39.922 37.3585 39.9918 37.1237 39.9918C36.8918 39.9918 36.7025 39.9795 36.5558 39.9549C36.409 39.9302 36.2843 39.881 36.1815 39.8072C35.9702 39.654 35.8645 39.3736 35.8645 38.966V35.737H35.4287C35.3377 35.737 35.2716 35.7096 35.2305 35.6549C35.1601 35.5701 35.1249 35.499 35.1249 35.4416C35.1249 35.3458 35.1498 35.2925 35.1997 35.2816C35.6664 35.2077 35.9966 34.8849 36.1903 34.3133C36.2461 34.1409 36.2901 33.9372 36.3224 33.7019C36.4633 33.68 36.569 33.6691 36.6394 33.6691C36.7128 33.6691 36.7759 33.7033 36.8287 33.7717C36.8816 33.8401 36.9065 33.9194 36.9036 34.0096C36.9036 34.0999 36.9021 34.1847 36.8992 34.264C36.8962 34.3433 36.8933 34.4295 36.8904 34.5225L36.8727 35.0969H38.3961C38.4342 35.1598 38.4533 35.2269 38.4533 35.298V35.4252C38.4533 35.5401 38.3873 35.6344 38.2552 35.7083C38.1231 35.7794 37.9764 35.815 37.8149 35.815C37.6564 35.815 37.542 35.8136 37.4715 35.8109C37.404 35.8054 37.338 35.7999 37.2734 35.7944L37.0797 35.7698C37.0122 35.7644 36.9403 35.7589 36.8639 35.7534V35.7985L36.8551 38.1947Z" fill="white"/>
<path d="M50.7114 39.2163C49.9805 39.7333 49.1778 39.9918 48.3031 39.9918C47.7278 39.9918 47.2259 39.8509 46.7974 39.5692C46.3131 39.2492 46.0709 38.8115 46.0709 38.2562C46.0709 37.6654 46.3395 37.1689 46.8766 36.7668C47.0322 36.652 47.1907 36.5535 47.3521 36.4714C46.9881 36.0064 46.8062 35.5907 46.8062 35.2241C46.8062 34.7372 46.9999 34.3379 47.3873 34.0261C47.7513 33.7361 48.1783 33.5911 48.6685 33.5911C49.1029 33.5911 49.4625 33.6718 49.7472 33.8332C50.0671 34.0137 50.2271 34.2668 50.2271 34.5923C50.2271 34.9479 50.0524 35.1968 49.7031 35.339C49.6327 35.3609 49.5681 35.3718 49.5094 35.3718C49.4537 35.3718 49.3964 35.3486 49.3377 35.3021C49.3583 35.22 49.3685 35.1216 49.3685 35.0067V34.9123C49.3421 34.7099 49.2526 34.5499 49.1 34.4323C48.9473 34.3119 48.7375 34.2517 48.4704 34.2517C48.1152 34.2517 47.8716 34.3693 47.7395 34.6046C47.6896 34.6921 47.6647 34.8056 47.6647 34.9451C47.6647 35.0846 47.7072 35.2392 47.7924 35.4088C47.8775 35.5756 47.9934 35.7493 48.1402 35.9298C48.2899 36.1104 48.463 36.295 48.6597 36.4837C48.8593 36.6725 49.0721 36.8612 49.2981 37.05C49.8998 37.5232 50.3709 37.8815 50.7114 38.1249C51.0695 37.6025 51.2896 36.9624 51.3718 36.2047C51.4686 36.1883 51.5684 36.1801 51.6712 36.1801C52.1232 36.1801 52.3492 36.3798 52.3492 36.7792C52.3492 37.1375 52.1701 37.5792 51.812 38.1044C51.6946 38.2767 51.5582 38.4463 51.4026 38.6132L51.7724 38.8635C52.0924 39.0768 52.3624 39.1835 52.5825 39.1835C52.6999 39.1835 52.7983 39.1589 52.8775 39.1097C52.9568 39.0577 53.0052 39.029 53.0228 39.0235C53.0433 39.018 53.0654 39.0194 53.0888 39.0276C53.1152 39.0358 53.1402 39.0467 53.1637 39.0604C53.2194 39.0987 53.2473 39.1479 53.2473 39.2081C53.2473 39.2656 53.2194 39.3435 53.1637 39.442C53.1079 39.5377 53.0345 39.6266 52.9435 39.7087C52.7293 39.9029 52.5003 40 52.2567 40C52.0219 40 51.7519 39.9002 51.4466 39.7005L50.7114 39.2163ZM47.7483 36.9187C47.3198 37.2086 47.1055 37.5615 47.1055 37.9772C47.1055 38.3985 47.2464 38.7294 47.5282 38.9701C47.7836 39.1917 48.0888 39.3025 48.444 39.3025C49.0868 39.3025 49.6327 39.1329 50.0818 38.7937C49.257 38.2084 48.7023 37.7912 48.4176 37.5423C48.1328 37.2907 47.9098 37.0828 47.7483 36.9187Z" fill="white"/>
<path d="M64.1449 35.3554C64.1449 34.729 63.9057 34.3365 63.4273 34.1779C63.2629 34.1232 63.0707 34.0958 62.8505 34.0958C62.6304 34.0958 62.4411 34.1191 62.2826 34.1656C62.1241 34.2121 61.992 34.275 61.8863 34.3543C61.6721 34.5157 61.5649 34.729 61.5649 34.9944C61.5649 35.3965 61.8819 35.7397 62.5159 36.0242L63.0663 36.2663C63.3334 36.3812 63.5902 36.4988 63.8367 36.6191C64.0862 36.7368 64.3064 36.8722 64.4972 37.0253C64.9169 37.359 65.1267 37.7721 65.1267 38.2644C65.1267 38.7924 64.8802 39.2177 64.3871 39.5405C63.9263 39.8414 63.348 39.9918 62.6524 39.9918C62.1006 39.9918 61.6134 39.9111 61.1907 39.7497C60.8796 39.6348 60.658 39.4721 60.5259 39.2615C60.4584 39.1548 60.4246 39.0249 60.4246 38.8717C60.4246 38.5653 60.5068 38.2795 60.6712 38.0142C60.727 37.9512 60.8033 37.9198 60.9001 37.9198C61.088 37.9198 61.1966 37.9718 61.2259 38.0757C61.2641 38.5489 61.4197 38.8936 61.6926 39.1097C61.9685 39.3257 62.353 39.4338 62.8461 39.4338C63.4126 39.4338 63.7927 39.2615 63.9864 38.9168C64.0539 38.7965 64.0877 38.6556 64.0877 38.4942C64.0877 38.3301 64.0407 38.1837 63.9468 38.0552C63.8529 37.9266 63.7281 37.8076 63.5726 37.6982C63.3348 37.5341 63.0193 37.3755 62.626 37.2223C62.2356 37.0691 61.9304 36.9351 61.7102 36.8202C61.493 36.7053 61.3008 36.5713 61.1335 36.4181C60.7695 36.0844 60.5875 35.6727 60.5875 35.1831C60.5875 34.6825 60.8179 34.2818 61.2788 33.9809C61.722 33.691 62.2943 33.546 62.9958 33.546C63.8852 33.546 64.4663 33.717 64.7393 34.0589C64.8391 34.182 64.889 34.3433 64.889 34.543C64.889 34.7427 64.8684 34.9164 64.8274 35.0641C64.7892 35.2118 64.751 35.3076 64.7129 35.3513C64.6483 35.4252 64.5368 35.4621 64.3783 35.4621C64.2227 35.4621 64.1449 35.4265 64.1449 35.3554Z" fill="white"/>
<path d="M67.9691 37.7064C67.9691 37.3755 68.0058 37.0814 68.0792 36.8243C68.1526 36.5672 68.2509 36.3374 68.3742 36.135C68.5004 35.9298 68.6471 35.7507 68.8145 35.5975C68.9847 35.4443 69.1667 35.3171 69.3604 35.2159C69.742 35.0135 70.1177 34.9123 70.4875 34.9123C70.8573 34.9123 71.1538 34.9738 71.3768 35.0969C71.5999 35.2173 71.7819 35.3787 71.9228 35.5811C72.184 35.9668 72.3146 36.4796 72.3146 37.1197C72.3146 37.3577 72.2075 37.4794 71.9932 37.4849L68.9201 37.5464C68.9377 38.14 69.1021 38.579 69.4132 38.8635C69.6774 39.1042 70.0193 39.2245 70.4391 39.2245C71.0642 39.2245 71.572 39.1028 71.9624 38.8594C71.9888 38.8594 72.0211 38.8799 72.0593 38.9209C72.1326 39.003 72.1693 39.0741 72.1693 39.1343C72.1693 39.2656 71.9932 39.4338 71.641 39.6389C71.2359 39.8742 70.7634 39.9918 70.2233 39.9918C69.5189 39.9918 68.9656 39.7825 68.5635 39.364C68.1673 38.9537 67.9691 38.4012 67.9691 37.7064ZM68.9465 37.0171C69.7919 36.9788 70.5653 36.9282 71.2668 36.8653C71.2991 35.9955 70.9762 35.5606 70.2982 35.5606C69.9195 35.5606 69.6099 35.6973 69.3692 35.9709C69.1491 36.2225 69.0082 36.5713 68.9465 37.0171Z" fill="white"/>
<path d="M78.2125 39.3928C77.784 39.7921 77.2659 39.9918 76.6583 39.9918C76.1887 39.9918 75.813 39.866 75.5312 39.6143C75.2465 39.3599 75.1042 39.0303 75.1042 38.6255C75.1042 38.1222 75.3449 37.7447 75.8262 37.4931C76.2606 37.2633 76.8726 37.1484 77.6622 37.1484H78.2125C78.2154 37.0445 78.2169 36.9433 78.2169 36.8448V36.5371C78.2169 36.1705 78.1597 35.9121 78.0452 35.7616C77.916 35.592 77.6959 35.5072 77.3848 35.5072C76.6715 35.5072 76.3047 35.7452 76.2841 36.2211C76.2812 36.295 76.2826 36.3565 76.2885 36.4058C76.2298 36.4496 76.13 36.4714 75.9891 36.4714C75.8512 36.4714 75.7499 36.4564 75.6853 36.4263C75.6237 36.3962 75.5694 36.3552 75.5224 36.3032C75.4226 36.1965 75.3727 36.0611 75.3727 35.897C75.3727 35.7302 75.4241 35.5852 75.5268 35.4621C75.6325 35.3363 75.7749 35.2337 75.9539 35.1544C76.3032 34.993 76.7156 34.9123 77.1911 34.9123C77.6666 34.9123 78.0232 34.9561 78.2609 35.0436C78.5016 35.1284 78.6924 35.2419 78.8333 35.3841C79.0828 35.6358 79.2075 35.9736 79.2075 36.3976L79.1635 38.367C79.1635 38.7253 79.1811 38.9524 79.2163 39.0481C79.2545 39.1438 79.2985 39.2081 79.3484 39.2409C79.4012 39.2738 79.4643 39.2902 79.5377 39.2902C79.614 39.2902 79.6757 39.2792 79.7226 39.2574L79.8459 39.204C79.887 39.1903 79.9222 39.2068 79.9516 39.2533C79.9839 39.297 80 39.3367 80 39.3722C80 39.4051 79.9839 39.4488 79.9516 39.5035C79.9222 39.5582 79.865 39.6171 79.7799 39.68C79.6977 39.7401 79.6038 39.7935 79.4981 39.84C78.914 40.0971 78.5163 40.0369 78.305 39.6595C78.2609 39.5856 78.2301 39.4967 78.2125 39.3928ZM78.1993 38.8553C78.1993 38.4614 78.2022 38.0702 78.2081 37.6818C77.5976 37.7037 77.1823 37.7406 76.9621 37.7926C76.7449 37.8418 76.5879 37.8897 76.491 37.9362C76.3942 37.9827 76.3179 38.0374 76.2621 38.1003C76.1711 38.2043 76.1256 38.3615 76.1256 38.5722C76.1256 38.78 76.2049 38.9469 76.3634 39.0727C76.5219 39.1958 76.7493 39.2574 77.0458 39.2574C77.4655 39.2574 77.85 39.1233 78.1993 38.8553Z" fill="white"/>
</svg>
