<svg width="160" height="10" viewBox="0 0 160 10" fill="none" xmlns="http://www.w3.org/2000/svg">
<path d="M0 9C5.52727 9 7.63636 3.66667 8 1C8.36364 3.66667 10.4727 9 16 9C21.5273 9 23.6364 3.66667 24 1C24.3636 3.66667 26.4727 9 32 9C37.5273 9 39.6364 3.66667 40 1C40.3636 3.66667 42.4727 9 48 9C53.5273 9 55.6364 3.66667 56 1C56.3636 3.66667 58.4727 9 64 9C69.5273 9 71.6364 3.66667 72 1C72.3636 3.66667 74.4727 9 80 9C85.5273 9 87.6364 3.66667 88 1C88.3636 3.66667 90.4727 9 96 9C101.527 9 103.636 3.66667 104 1C104.364 3.66667 106.473 9 112 9C117.527 9 119.636 3.66667 120 1C120.364 3.66667 122.473 9 128 9C133.527 9 135.636 3.66667 136 1C136.364 3.66667 138.473 9 144 9C149.527 9 151.636 3.66667 152 1C152.364 3.66667 154.473 9 160 9" stroke="#C4966A" stroke-width="2"/>
</svg>
