<svg width="24" height="24" viewBox="0 0 24 24" fill="none" xmlns="http://www.w3.org/2000/svg">
<path d="M14.2547 9.57188V12.9047C14.2547 12.9891 14.1891 13.0547 14.1047 13.0547H13.5703C13.5188 13.0547 13.4719 13.0266 13.4484 12.9938L11.9203 10.9313V12.9094C11.9203 12.9938 11.8547 13.0594 11.7703 13.0594H11.2359C11.1516 13.0594 11.0859 12.9938 11.0859 12.9094V9.57656C11.0859 9.49219 11.1516 9.42656 11.2359 9.42656H11.7656C11.8125 9.42656 11.8641 9.45 11.8875 9.49219L13.4156 11.5547V9.57656C13.4156 9.49219 13.4813 9.42656 13.5656 9.42656H14.1C14.1844 9.42188 14.2547 9.49219 14.2547 9.57188ZM10.4109 9.42188H9.87657C9.7922 9.42188 9.72657 9.4875 9.72657 9.57188V12.9047C9.72657 12.9891 9.7922 13.0547 9.87657 13.0547H10.4109C10.4953 13.0547 10.5609 12.9891 10.5609 12.9047V9.57188C10.5609 9.49219 10.4953 9.42188 10.4109 9.42188ZM9.12188 12.2156H7.66407V9.57188C7.66407 9.4875 7.59845 9.42188 7.51407 9.42188H6.9797C6.89532 9.42188 6.8297 9.4875 6.8297 9.57188V12.9047C6.8297 12.9469 6.84376 12.9797 6.87188 13.0078C6.90001 13.0313 6.93282 13.05 6.97501 13.05H9.1172C9.20157 13.05 9.2672 12.9844 9.2672 12.9V12.3656C9.2672 12.2859 9.20157 12.2156 9.12188 12.2156ZM17.0672 9.42188H14.925C14.8453 9.42188 14.775 9.4875 14.775 9.57188V12.9047C14.775 12.9844 14.8406 13.0547 14.925 13.0547H17.0672C17.1516 13.0547 17.2172 12.9891 17.2172 12.9047V12.3703C17.2172 12.2859 17.1516 12.2203 17.0672 12.2203H15.6094V11.6578H17.0672C17.1516 11.6578 17.2172 11.5922 17.2172 11.5078V10.9688C17.2172 10.8844 17.1516 10.8188 17.0672 10.8188H15.6094V10.2563H17.0672C17.1516 10.2563 17.2172 10.1906 17.2172 10.1063V9.57188C17.2125 9.49219 17.1469 9.42188 17.0672 9.42188ZM22.5 5.32969V18.7031C22.4953 20.8031 20.775 22.5047 18.6703 22.5H5.29688C3.19688 22.4953 1.49532 20.7703 1.50001 18.6703V5.29688C1.5047 3.19688 3.2297 1.49531 5.3297 1.5H18.7031C20.8031 1.50469 22.5047 3.225 22.5 5.32969ZM19.6125 11.0766C19.6125 7.65469 16.1813 4.87031 11.9672 4.87031C7.75313 4.87031 4.32188 7.65469 4.32188 11.0766C4.32188 14.1422 7.04063 16.7109 10.7156 17.1984C11.6109 17.3906 11.5078 17.7188 11.3063 18.9234C11.2734 19.1156 11.1516 19.6781 11.9672 19.3359C12.7828 18.9938 16.3688 16.7438 17.9766 14.8969C19.0828 13.6781 19.6125 12.4453 19.6125 11.0766Z" fill="white" fill-opacity="0.9"/>
</svg>
